<?xml version="1.0" encoding="utf-8"?>
<!-- Generator: Adobe Illustrator 23.0.2, SVG Export Plug-In . SVG Version: 6.00 Build 0)  -->
<svg version="1.1" id="Layer_1" xmlns="http://www.w3.org/2000/svg" xmlns:xlink="http://www.w3.org/1999/xlink" x="0px" y="0px"
	 viewBox="0 0 56.7 56.7" style="enable-background:new 0 0 56.7 56.7;" xml:space="preserve">
<style type="text/css">
	.st0{fill:#EF5757;}
</style>
<g>
	<g>
		<path class="st0" d="M30.8,49.8c1.1,0,1.4-0.6,0.6-1.4L17.7,34.7c-0.8-0.8-0.5-1.4,0.6-1.4h32.6c1.1,0,2-0.9,2-2v-3
			c0-1.1-0.9-2-2-2H18.3c-1.1,0-1.4-0.6-0.6-1.4l13.7-13.7c0.8-0.8,0.5-1.4-0.6-1.4h-5.9c-1.1,0-2.6,0.6-3.4,1.4L4.3,28.4
			c-0.8,0.8-0.8,2,0,2.8l17.2,17.2c0.8,0.8,2.3,1.4,3.4,1.4H30.8z"/>
	</g>
</g>
</svg>
