<?xml version="1.0" encoding="utf-8"?>
<!-- Generator: Adobe Illustrator 23.0.2, SVG Export Plug-In . SVG Version: 6.00 Build 0)  -->
<svg version="1.1" id="Layer_1" xmlns="http://www.w3.org/2000/svg" xmlns:xlink="http://www.w3.org/1999/xlink" x="0px" y="0px"
	 viewBox="0 0 100 125" style="enable-background:new 0 0 100 125;" xml:space="preserve">
<path d="M95,43.4l-2.4-27.1c-0.2-2.8-2.2-4.7-4.7-4.7c-0.9,0-2.2,0.2-3.5,1.4l-6.9,6.1C60.7,3.1,34,3.3,17.5,19.8
	C9.4,27.8,5,38.6,5,50c0,11.4,4.4,22.2,12.5,30.2c8.1,8.1,18.8,12.5,30.2,12.5c11.4,0,22.2-4.4,30.2-12.5c2.7-2.6,4.9-5.6,6.8-8.9
	c2-3.5,0.8-8.1-2.7-10.1c-3.5-2.1-8.1-0.8-10.1,2.7c-1.2,2.1-2.7,4-4.4,5.8c-5.3,5.3-12.3,8.2-19.7,8.2c-7.5,0-14.5-2.9-19.7-8.2
	c-5.3-5.3-8.2-12.3-8.2-19.7c0-7.5,2.9-14.5,8.2-19.7c10.5-10.5,27.2-10.8,38.2-1.2L59.5,35c-1.5,1.4-2.2,3.2-1.7,5
	c0.5,1.8,1.9,3.1,4,3.5l26.6,5.7c0.4,0.1,0.9,0.1,1.3,0.1c1.6,0,3-0.6,4-1.7C94.6,46.6,95.1,45,95,43.4z"/>
</svg>
