<svg id="Search" xmlns="http://www.w3.org/2000/svg" width="19" height="19" viewBox="0 0 19 19">
  <rect id="사각형_176" data-name="사각형 176" width="19" height="19" fill="none"/>
  <path id="패스_99" data-name="패스 99" d="M18.9,17.236l-3.923-3.923a8.139,8.139,0,0,0,1.664-4.992A8.27,8.27,0,0,0,8.321,0,8.27,8.27,0,0,0,0,8.321a8.27,8.27,0,0,0,8.321,8.321,8.139,8.139,0,0,0,4.992-1.664L17.236,18.9ZM2.377,8.321A5.886,5.886,0,0,1,8.321,2.377a5.886,5.886,0,0,1,5.943,5.943,5.886,5.886,0,0,1-5.943,5.943A5.886,5.886,0,0,1,2.377,8.321Z" fill="#ff9494"/>
</svg>