<?xml version="1.0" encoding="utf-8"?>
<!-- Generator: Adobe Illustrator 23.0.2, SVG Export Plug-In . SVG Version: 6.00 Build 0)  -->
<svg version="1.1" id="Layer_1" xmlns="http://www.w3.org/2000/svg" xmlns:xlink="http://www.w3.org/1999/xlink" x="0px" y="0px"
	 viewBox="0 0 20 20" style="enable-background:new 0 0 20 20;" xml:space="preserve">
<style type="text/css">
	.st0{fill:#FFFFFF;}
</style>
<g>
	<path class="st0" d="M14,6c1.9,0,3.6,0.7,5,1.8V3c0-0.5-0.5-1-1-1h-1V1c0-0.6-0.4-1-1-1s-1,0.4-1,1v1H5V1c0-0.6-0.4-1-1-1
		S3,0.4,3,1v1H1C0.5,2,0,2.4,0,3v14c0,0.6,0.5,1,1,1h6.1C6.4,16.8,6,15.4,6,14C6,9.6,9.6,6,14,6z"/>
	<path class="st0" d="M14,8c-3.3,0-6,2.7-6,6s2.7,6,6,6s6-2.7,6-6S17.3,8,14,8z M16,15h-2c-0.6,0-1-0.4-1-1v-3c0-0.6,0.4-1,1-1
		s1,0.4,1,1v2h1c0.6,0,1,0.4,1,1S16.6,15,16,15z"/>
</g>
</svg>
